<?xml version="1.0" encoding="UTF-8"?>
<svg width="630" height="630" version="1.1" viewBox="0 0 167 167" xml:space="preserve" xmlns="http://www.w3.org/2000/svg"><g transform="translate(43.1 -18.2)"><g transform="translate(2.93 -4.27)"><g><path d="m6.64 65.2 0.867 5.85-6.29 2.27-1.45-5.53z" fill="#d3914e" style="paint-order:markers stroke fill"/><path d="m7.51 71.1 22.6 40.6-5.29 4.87-23.6-43.2z" fill="#c49656" style="paint-order:markers stroke fill"/><path d="m54.2 116 17.7-25.8-7.76-15.7-56.7-3.52 22.6 40.6 18.9 0.406z" fill="#dd9e5a" style="paint-order:markers stroke fill"/></g><g fill="none" stroke-linecap="square" stroke-width=".529"><path d="m35.3 159 6.2-64.5" stroke="#fdae61" style="paint-order:markers stroke fill"/><path d="m-7.29 61.5 44.3 79.9 50.7-73.8z" stroke="#fff" style="paint-order:markers stroke fill"/><path d="m73.9 75.7-32.3 18.9" opacity=".486" stroke="#2b83ba" style="paint-order:markers stroke fill"/><path d="m106 56.8-32.3 18.9" stroke="#2b83ba" style="paint-order:markers stroke fill"/><path d="m70.6 158 6.06 6.34-0.371 6.47" stroke="#abdda4" style="paint-order:markers stroke fill"/><path d="m84 158-7.39 6.28" stroke="#abdda4" style="paint-order:markers stroke fill"/><path d="m33.6 165 0.8 1.91 0.514-0.948 0.614 0.924 0.81-2.28" stroke="#fdae61" style="paint-order:markers stroke fill"/><path d="m-36.7 38.8-1.31 4.02" stroke="#d7191c" style="paint-order:markers stroke fill"/><path d="m-39.4 40.6 3.59 0.501" stroke="#d7191c" style="paint-order:markers stroke fill"/><path d="m113 50.6-1.46 1.83h3.68l-1.4 1.8" stroke="#2b83ba" style="paint-order:markers stroke fill"/></g><g><path d="m34.8 128-10-11.5 5.29-4.87 18.9 0.406 5.31 4.02-8.65 12.2z" fill="#cd8b4d" style="paint-order:markers stroke fill"/><path d="m38.3 115-3.49 12.7 10.8 0.199 6.77-12.5z" fill="#c47b2e" style="paint-order:markers stroke fill"/><path d="m66.9 68.7-2.68 5.89 7.76 15.7 5.38-9.36-4.08-8.76z" fill="#de8d46" style="paint-order:markers stroke fill"/><path d="m73.3 72.2 4.08 8.76-17.5 23-5.78-12.3z" fill="#70754e" style="paint-order:markers stroke fill"/><path d="m64.2 74.6-56.7-3.52-0.867-5.85 60.3 3.49z" fill="#e5984b" style="paint-order:markers stroke fill"/></g><path d="m3.8 69.1 37.7 25.6" fill="none" opacity=".486" stroke="#d7191c" stroke-linecap="square" stroke-width=".529" style="paint-order:markers stroke fill"/><path d="m-29.4 46.5 30.7 20.8" fill="none" stroke="#d7191c" stroke-linecap="square" stroke-width=".529" style="paint-order:markers stroke fill"/><path d="m25.3 90.4 28.8 1.29 5.78 12.3-7.47 11.8-14-0.398z" fill="#8b7d33" style="paint-order:markers stroke fill"/><g fill="none" stroke-linecap="square" stroke-width=".529"><path d="m64.3 141-17.5-35.3" stroke="#abdda4" style="paint-order:markers stroke fill"/><path d="m87.8 67.6-36.5 46.9" stroke="#fff" style="paint-order:markers stroke fill"/><path d="m-7.29 61.5 58.6 52.9-14.3 27" stroke="#fff" style="paint-order:markers stroke fill"/></g></g></g></svg>
