<?xml version="1.0" encoding="UTF-8"?>
<svg width="71.812pt" height="57.688pt" version="1.2" viewBox="0 0 71.812 57.688" xmlns="http://www.w3.org/2000/svg" xmlns:xlink="http://www.w3.org/1999/xlink">
<style>
    g {
      fill: black;
    }
    @media (prefers-color-scheme: dark) {
      g {
        fill: #FDD835;
      }
    }
  </style>
 <defs>
  <clipPath>
   <path d="m0 0.375h17.938v17.312h-17.938z"/>
  </clipPath>
  <clipPath id="e">
   <rect width="18" height="18"/>
  </clipPath>
  <g clip-path="url(#e)"></g>
  <clipPath>
   <path d="m0 0.375h17.938v17.312h-17.938z"/>
  </clipPath>
  <clipPath id="d">
   <rect width="18" height="18"/>
  </clipPath>
  <g clip-path="url(#d)"></g>
  <clipPath>
   <rect width="596" height="842"/>
  </clipPath>
  <symbol id="c" overflow="visible"></symbol>
  <symbol id="b" overflow="visible">
   <path d="m28.312-20.688h-12.625l4.9219-37h12.531zm-1.9219 20.688h-14.188l1.5781-11.953h14.188zm-27.141-37.172-2.0781 16.484h5.2031v8.6562h-6.375l-1.5781 12.031h-10.859l1.5781-12.031h-7.9062l-1.5781 12.031h-10.875l1.5-12.031h-4.9531v-8.6562h6.125l2.1562-16.484h-5.2031v-8.7031h6.375l1.5-11.812h10.938l-1.6094 11.812h7.9375l1.5938-11.812h10.859l-1.5781 11.812h5.0312v8.7031zm-20.938 16.484h7.9062l2.1719-16.484h-7.9062z"/>
  </symbol>
  <symbol id="a" overflow="visible"></symbol>
 </defs>
 <g transform="translate(-38.278 -366.81)" fill="#020202">
  <use x="27" y="424.5" width="100%" height="100%" xlink:href="#c"/>
  <use x="76.949997" y="424.5" width="100%" height="100%" xlink:href="#b"/>
 </g>
 <g transform="translate(54.312 -315.93)" fill="#020202">
  <use x="401.37799" y="350.97501" width="100%" height="100%" xlink:href="#a"/>
  <use x="494.44699" y="350.97501" width="100%" height="100%" xlink:href="#a"/>
  <use x="401.37799" y="377.97501" width="100%" height="100%" xlink:href="#a"/>
  <use x="494.44699" y="377.97501" width="100%" height="100%" xlink:href="#a"/>
  <use x="472.54999" y="391.47501" width="100%" height="100%" xlink:href="#a"/>
  <use x="401.37799" y="404.97501" width="100%" height="100%" xlink:href="#a"/>
  <use x="483.50299" y="431.97501" width="100%" height="100%" xlink:href="#a"/>
  <use x="439.70001" y="521.97498" width="100%" height="100%" xlink:href="#a"/>
  <use x="461.59698" y="521.97498" width="100%" height="100%" xlink:href="#a"/>
  <use x="521.82501" y="521.97498" width="100%" height="100%" xlink:href="#a"/>
 </g>
</svg>
