<?xml version="1.0" encoding="UTF-8"?>
<svg width="17.621mm" height="20.21mm" version="1.1" viewBox="0 0 17.621 20.21" xmlns="http://www.w3.org/2000/svg">
<style> path { fill: black; } @media (prefers-color-scheme: dark) { path { fill: white; } } </style>
	<g transform="translate(-73.967 -69.888)">
		<path d="m81.346 86.615c0 2.1695-0.8941 2.3758-0.50141 3.1422 0.21235 0.41446 5.3316 0.44501 6.1341 0.12199 1.1562-1.0224-0.41154-1.4064-0.87472-1.4096l-2.9058-0.0025c0.3301-0.58603 0.57317-1.338 0.68451-1.8201 1.8582-0.12401 5.2138-0.82838 5.7926-3.3375 0.95121-4.1236-4.0397-5.6471-3.0693-8.1695 0.41294-1.0734 2.7001-0.65577 3.9603-1.0774 0.73122-0.24466 1.2508-1.7399 0.91905-1.9169-0.33176-0.17704-1.2811 0.6328-2.5545 0.06565-0.67619-0.35343-0.98188-1.0657-1.5559-1.5935-0.6817-0.62673-1.6485-1.011-2.7532-0.47589-3.6564 1.7711 1.937 7.6815-2.2556 10.138-1.4872 0.8714-3.9696 0.82771-5.5367 0.03276-1.4417-0.73134-1.1881-2.093-2.3961-1.9554-1.0513 0.11978-0.0425 2.7946 0.26558 3.4951 1.2144 2.761 3.6508 4.5174 6.6473 4.7625z"/>
	</g>
</svg>
